PathFileType	4	(X/Y/Z)	D:\TRACE\v60_Jaco2_6-2-23\JustArmDRS_Motion2_1-Unnamed.trc
DataRate	CameraRate	NumFrames	NumMarkers	Units	OrigDataRate	OrigDataStartFrame	OrigNumFrames
100.00	100.00	      52	0	mm	100.00	2700	      7199
Frame#	Time	
		

2700	26.990							130.13799	1154.06067	-92.73568																						203.30772	1347.07251	-207.57600	
2701	27.000							129.75177	1154.02063	-92.52336																						202.78574	1347.48413	-206.76923	
2702	27.010							129.71349	1153.95532	-92.24041																						202.09512	1347.46399	-206.19522	
2703	27.020																															200.92331	1347.49146	-206.12132	
2704	27.030	
2705	27.040										31.96207	1233.26599	265.75909																			198.02454	1347.83301	-206.20514	
2706	27.050										29.17931	1234.06201	265.35172																			197.44945	1347.89001	-205.70665	
2707	27.060																															195.45940	1347.89563	-205.90369	
2708	27.070																															194.02110	1348.55994	-206.01837	
2709	27.080										27.96051	1233.91614	264.26605																			193.32472	1348.65051	-205.93813	
2710	27.090																															191.28647	1348.50000	-206.99307							169.33359	666.48926	-215.59427	
2711	27.100	-157.92738	1300.21814	-508.30069																																					168.03406	666.80469	-216.22925	
2712	27.110	-159.76625	1300.55396	-507.98334																												116.32892	1155.83081	-93.12875							168.00502	666.93262	-216.60332	
2713	27.120																																								167.14157	666.94983	-216.85979	
2714	27.130	184.63632	1349.53015	-207.25432																																					166.32623	667.07776	-217.34973	
2715	27.140	184.39726	1349.27478	-207.02710																																					165.51549	667.13458	-217.95816	
2716	27.150	182.83546	1349.13123	-207.31424																																					164.89438	667.25903	-218.18726	
2717	27.160	182.52478	1349.11609	-207.89558																																					164.76758	667.06482	-218.78487							110.12119	1155.91626	-94.19649	
2718	27.170	181.00272	1349.06995	-207.96277																																														106.17020	1156.56580	-95.21077	
2719	27.180	179.40681	1348.82178	-208.92723	
2720	27.190	177.84801	1349.07776	-209.61098	
2721	27.200	174.81685	1349.16895	-211.20758	
2722	27.210	173.08617	1349.02502	-211.87912	
2723	27.220	170.19232	1349.14282	-214.11400	
2724	27.230	168.58696	1349.29419	-214.33893																																		95.31255	1156.76355	-99.13154	
2725	27.240	166.89671	1349.48328	-214.82826	
2726	27.250	163.55333	1349.60779	-216.87680	
2727	27.260	162.97136	1349.91455	-216.88074																																		73.41391	1085.24329	-76.76385	
2728	27.270	160.81180	1349.70642	-217.90947																																		71.27235	1085.40637	-77.82386										240.52390	1123.22314	-102.91912	
2729	27.280	158.32104	1349.08801	-218.59444																																		69.18069	1086.01660	-78.85152										83.29557	1157.47314	-103.60316	
2730	27.290	156.40552	1349.44995	-219.82675																																		68.16108	1085.53125	-79.59830													117.72073	1152.87439	-96.46469	
2731	27.300	153.17111	1349.52112	-221.69696	
2732	27.310	151.55884	1349.36389	-221.90213																																														231.69244	1123.69629	-106.98658	
2733	27.320	148.61826	1349.87512	-223.87622																																														226.47359	1123.90271	-108.34305	
2734	27.330	145.19958	1349.44751	-226.53027																																														75.32723	1156.52209	-108.08018	
2735	27.340																																																	71.41041	1157.22998	-109.72458	
2736	27.350	142.33194	1349.03137	-226.52263																																														70.39751	1156.62952	-110.41430	
2737	27.360	141.01717	1348.92468	-227.12830	
2738	27.370	136.22095	1348.81921	-231.23993																																					65.61126	1156.69250	-112.68956	
2739	27.380	132.75067	1348.93286	-233.10445																																					62.65775	1156.85071	-113.81567										206.95561	1096.77075	-104.81162	
2740	27.390	133.23409	1348.88525	-231.93773	
2741	27.400	129.75162	1348.94092	-233.99342																																					201.42532	1096.88428	-107.36221	
2742	27.410	124.98973	1348.78174	-238.14110							56.77805	1156.44666	-117.12490																												198.47185	1096.89380	-108.72330	
2743	27.420	122.99251	1348.46606	-238.61626																																					50.05979	1131.31482	-108.71182	
2744	27.430	123.36083	1348.51855	-237.44371							51.58327	1156.76929	-119.97700																												45.84281	1131.44189	-110.12904										99.28188	1106.39990	-134.57924	
2745	27.440	120.55070	1348.09241	-239.34918																																					44.93742	1130.80713	-111.24435	
2746	27.450	117.17746	1347.71948	-241.89226							751.17419	903.20654	-470.66415	
2747	27.460	117.01790	1347.72546	-241.95270																																					41.22915	1129.96863	-113.61498	
2748	27.470	112.82374	1347.40405	-245.27162																																					38.62586	1129.96106	-114.83442	
2749	27.480	108.78402	1347.55994	-248.22478	
2750	27.490	107.84634	1347.39795	-248.15639	
2751	27.500	104.91307	1346.90259	-250.08350	
